#!OML:ASF E:\inclinewalkrobotboard\Project 1\Capture day 1\Session 1\subject1.ASF
:FULLY-SPECIFIED
:DEGREES
191
root 7.33157 18.8718 20.0966 -167.821 -3.50544 177.316
lowerback 4.72602 -1.22814 -6.05147
upperback 3.94748 -2.12086 2.7044
thorax 1.76113 -1.35501 6.2787
lowerneck -7.23779 -1.31235 -4.31136
upperneck 20.031 -1.0983 4.66362
head 7.37646 -0.0642176 2.20307
rclavicle -2.62396e-014 2.62396e-014
rhumerus -71.8633 -49.0141 -24.6626
rradius 13.2853
rwrist 48.3678
rhand -10.7576 -36.3733
rfingers 7.12502
rthumb 15.254 -65.7909
lclavicle -2.62396e-014 2.62396e-014
lhumerus -18.6376 -2.99449 91.8088
lradius 28.4947
lwrist -20.2129
lhand -29.2159 -24.1659
lfingers 7.12502
lthumb -2.56018 5.79852
rfemur -55.3101 0.962515 15.2074
rtibia 42.2939
rfoot -11.6491 -8.18119
rtoes -25.5906
lfemur 2.13668 -9.02588 -25.3652
ltibia 17.6198
lfoot -13.6544 -2.07184
ltoes -43.9762
192
root 7.35222 18.9814 19.8149 -167.402 -3.09371 176.929
lowerback 4.71188 -1.14393 -5.89372
upperback 3.91384 -1.99917 2.67194
thorax 1.70698 -1.28537 6.15169
lowerneck -7.24407 -1.24829 -4.32744
upperneck 20.0893 -0.96297 4.45999
head 7.39005 -0.0174559 2.15125
rclavicle 2.72335e-014 7.95139e-016
rhumerus -70.1958 -49.3723 -26.0272
rradius 13.4469
rwrist 48.0164
rhand -11.0052 -36.4059
rfingers 7.12502
rthumb 15.0155 -65.8415
lclavicle 2.72335e-014 7.95139e-016
lhumerus -19.1375 -1.47542 91.3694
lradius 26.0285
lwrist -21.1023
lhand -28.963 -24.2585
lfingers 7.12502
lthumb -2.31595 5.70872
rfemur -54.3556 0.68962 15.2077
rtibia 41.9454
rfoot -12.7984 -7.40805
rtoes -25.7499
lfemur 2.37642 -8.6769 -25.8066
ltibia 17.5503
lfoot -10.3373 -1.04354
ltoes -43.742
193
root 7.37581 19.0987 19.5285 -166.932 -2.85006 176.517
lowerback 4.59842 -1.14309 -5.77527
upperback 3.84542 -1.98073 2.6593
thorax 1.69097 -1.26716 6.06785
lowerneck -7.33091 -1.17618 -4.27696
upperneck 20.2744 -0.787304 4.10742
head 7.45783 0.0440421 2.04508
rclavicle 7.55382e-015 -4.37326e-014
rhumerus -66.7725 -48.9097 -29.6817
rradius 13.8505
rwrist 45.9296
rhand -11.0692 -36.3688
rfingers 7.12502
rthumb 14.9538 -65.809
lclavicle 7.55382e-015 -4.37326e-014
lhumerus -19.7118 0.663504 90.7094
lradius 23.3919
lwrist -22.9123
lhand -28.4723 -24.5755
lfingers 7.12502
lthumb -1.84204 5.39634
rfemur -53.2824 0.138198 15.2362
rtibia 41.438
rfoot -14.065 -6.66293
rtoes -25.2271
lfemur 2.40399 -8.20456 -26.1162
ltibia 17.5854
lfoot -6.63608 -0.255501
ltoes -43.821
194
root 7.40745 19.2196 19.2433 -166.301 -2.70995 176.289
lowerback 4.32146 -1.21652 -5.59475
upperback 3.69393 -2.0459 2.7444
thorax 1.69415 -1.28622 6.04966
lowerneck -7.31138 -1.08345 -4.46089
upperneck 20.4011 -0.582242 3.92303
head 7.488 0.115876 2.0352
rclavicle 8.34896e-015 -2.94201e-014
rhumerus -62.3354 -47.6543 -34.6047
rradius 14.3725
rwrist 42.8606
rhand -11.1379 -36.4081
rfingers 7.12502
rthumb 14.8876 -65.8532
lclavicle 8.34896e-015 -2.94201e-014
lhumerus -20.4917 3.46268 89.8055
lradius 20.991
lwrist -25.4833
lhand -27.8826 -24.3864
lfingers 7.12502
lthumb -1.27254 5.58953
rfemur -52.2792 -0.257609 15.3662
rtibia 40.7655
rfoot -15.7654 -6.06883
rtoes -22.7468
lfemur 1.77809 -7.61925 -26.0111
ltibia 18.267
lfoot -2.82027 0.782263
ltoes -44.0003
195
root 7.44343 19.3445 18.9642 -165.672 -2.56109 176.277
lowerback 4.03697 -1.2719 -5.30315
upperback 3.53204 -2.08713 2.87888
thorax 1.68458 -1.29189 6.01923
lowerneck -7.39491 -0.98466 -4.58925
upperneck 20.5999 -0.370807 3.73781
head 7.56009 0.195855 2.01778
rclavicle -1.59028e-015 -4.6118e-014
rhumerus -58.601 -46.6652 -38.4617
rradius 14.7419
rwrist 40.5239
rhand -11.3421 -36.1272
rfingers 7.12502
rthumb 14.6909 -65.5867
lclavicle -1.59028e-015 -4.6118e-014
lhumerus -21.2543 6.43997 88.6965
lradius 18.8452
lwrist -28.2278
lhand -27.1197 -23.2172
lfingers 7.12502
lthumb -0.535739 6.7619
rfemur -51.1974 -0.272558 15.593
rtibia 39.8596
rfoot -15.9442 -5.72796
rtoes -24.917
lfemur 0.596545 -7.01417 -25.6113
ltibia 19.8768
lfoot 0.560036 1.84876
ltoes -44.7123
196
root 7.48035 19.4728 18.693 -165.241 -2.295 176.254
lowerback 3.891 -1.22738 -5.0757
upperback 3.46503 -2.01131 2.93952
thorax 1.67886 -1.24572 5.94848
lowerneck -7.85404 -0.887973 -4.31517
upperneck 21.005 -0.155894 3.28722
head 7.76808 0.28476 1.85002
rclavicle 1.82882e-014 -3.73715e-014
rhumerus -55.253 -45.9797 -41.8449
rradius 15.1084
rwrist 38.567
rhand -11.6268 -36.0981
rfingers 7.12502
rthumb 14.4166 -65.5773
lclavicle 1.82882e-014 -3.73715e-014
lhumerus -21.9597 10.2539 87.0523
lradius 16.6507
lwrist -32.0429
lhand -26.0332 -23.3538
lfingers 7.12502
lthumb 0.513642 6.62531
rfemur -49.8723 0.0578156 15.6709
rtibia 38.7684
rfoot -16.2342 -5.36308
rtoes -24.9059
lfemur -0.876442 -6.31045 -25.2953
ltibia 22.4448
lfoot 3.31505 2.56714
ltoes -45.5597
197
root 7.51789 19.5965 18.4265 -165.066 -1.85428 176.116
lowerback 3.88674 -1.09255 -5.04428
upperback 3.46779 -1.82945 2.91657
thorax 1.65617 -1.1527 5.90336
lowerneck -6.90508 -1.05156 -5.21055
upperneck 20.3273 -0.456087 4.0795
head 7.38901 0.135794 2.2218
rclavicle 7.95139e-016 2.38542e-015
rhumerus -51.5508 -44.6452 -45.9179
rradius 15.7204
rwrist 35.9516
rhand -11.8016 -36.6292
rfingers 7.12502
rthumb 14.2482 -66.1205
lclavicle 7.95139e-016 2.38542e-015
lhumerus -22.9212 13.9406 85.1869
lradius 14.8051
lwrist -36.1681
lhand -25.3797 -23.3992
lfingers 7.12502
lthumb 1.1448 6.57749
rfemur -48.3189 0.625683 15.5374
rtibia 37.6361
rfoot -17.0485 -4.944
rtoes -23.6522
lfemur -2.51214 -5.49464 -25.2472
ltibia 25.7916
lfoot 5.58737 3.0637
ltoes -45.894
198
root 7.55546 19.7104 18.1607 -165.075 -1.35127 176.091
lowerback 3.86296 -0.906768 -4.94986
upperback 3.51389 -1.57991 2.87647
thorax 1.67756 -1.02793 5.80173
lowerneck -6.65878 -1.03861 -5.33192
upperneck 20.2843 -0.425741 4.12305
head 7.3299 0.148474 2.25804
rclavicle -2.78299e-015 -4.13472e-014
rhumerus -47.7735 -42.5076 -50.4214
rradius 16.588
rwrist 32.6333
rhand -12.002 -37.2718
rfingers 7.12502
rthumb 14.0551 -66.7765
lclavicle -2.78299e-015 -4.13472e-014
lhumerus -24.1651 17.1263 83.2223
lradius 13.5287
lwrist -40.0181
lhand -24.7785 -23.0683
lfingers 7.12502
lthumb 1.72548 6.90442
rfemur -46.5173 1.32869 15.5213
rtibia 36.4192
rfoot -18.0162 -4.42217
rtoes -21.4562
lfemur -4.29506 -4.60637 -25.1757
ltibia 29.5714
lfoot 7.43261 3.5224
ltoes -46.1785
199
root 7.59829 19.8148 17.9171 -164.965 -1.20751 176.053
lowerback 3.82376 -0.829851 -4.847
upperback 3.49646 -1.46951 2.84096
thorax 1.66179 -0.967572 5.70295
lowerneck -6.05659 -1.20215 -5.74893
upperneck 20.112 -0.654586 4.41295
head 7.18025 0.0373061 2.40132
rclavicle -2.38542e-015 -3.18055e-015
rhumerus -44.2667 -40.085 -54.7736
rradius 17.6104
rwrist 29.3907
rhand -12.347 -37.7689
rfingers 7.12502
rthumb 13.7226 -67.2965
lclavicle -2.38542e-015 -3.18055e-015
lhumerus -25.4822 19.595 81.3374
lradius 12.8341
lwrist -43.0469
lhand -24.016 -22.6107
lfingers 7.12502
lthumb 2.46192 7.35488
rfemur -44.7979 1.73231 15.5687
rtibia 35.1164
rfoot -18.7999 -4.07486
rtoes -19.0184
lfemur -6.85837 -3.9602 -25.0393
ltibia 34.2476
lfoot 8.7269 4.11995
ltoes -46.2853
200
root 7.63505 19.9112 17.676 -165.034 -1.00345 176.189
lowerback 3.82612 -0.722578 -4.59595
upperback 3.55129 -1.32675 2.85116
thorax 1.69081 -0.89567 5.56709
lowerneck -7.50642 -0.913077 -4.50929
upperneck 21.2874 -0.0657766 3.09305
head 7.79738 0.315074 1.83203
rclavicle 1.43125e-014 5.08889e-014
rhumerus -41.0178 -37.6796 -58.6433
rradius 18.5995
rwrist 26.6324
rhand -12.8587 -38.0744
rfingers 7.12502
rthumb 13.2294 -67.6346
lclavicle 1.43125e-014 5.08889e-014
lhumerus -26.7036 21.3718 79.7081
lradius 12.4152
lwrist -45.161
lhand -23.3901 -22.1263
lfingers 7.12502
lthumb 3.06635 7.83141
rfemur -42.8808 2.01244 15.9281
rtibia 33.664
rfoot -19.4062 -3.6217
rtoes -16.3012
lfemur -9.51715 -3.49549 -24.834
ltibia 39.4639
lfoot 8.16033 5.12529
ltoes -48.3791
201
root 7.6707 19.9987 17.4379 -165.16 -0.846842 176.53
lowerback 3.79994 -0.597452 -4.19026
upperback 3.60834 -1.15978 2.92881
thorax 1.73399 -0.810862 5.41278
lowerneck -7.73449 -0.912904 -4.34669
upperneck 21.731 0.0377261 2.73511
head 7.98407 0.357697 1.70449
rclavicle 3.97569e-016 1.27222e-014
rhumerus -38.0708 -35.1985 -62.0727
rradius 19.5778
rwrist 23.8983
rhand -13.7505 -38.2016
rfingers 7.12502
rthumb 12.3696 -67.8156
lclavicle 3.97569e-016 1.27222e-014
lhumerus -27.8794 22.787 78.2208
lradius 12.1132
lwrist -46.7264
lhand -23.2439 -22.354
lfingers 7.12502
lthumb 3.20759 7.60166
rfemur -40.9192 2.23261 16.5234
rtibia 32.17
rfoot -19.4483 -3.74749
rtoes -23.6343
lfemur -12.2746 -2.85899 -24.4988
ltibia 44.345
lfoot 6.08687 5.78681
ltoes -47.9203
